<svg width="96" height="96" xmlns="http://www.w3.org/2000/svg" xmlns:xlink="http://www.w3.org/1999/xlink" overflow="hidden"><defs><clipPath id="clip0"><rect x="0" y="0" width="96" height="96"/></clipPath></defs><g clip-path="url(#clip0)"><path d="M46 14 50 14 50 26 46 26Z" stroke="#FFFFFF" fill="#FFFFFF"/><path d="M77.9091 20.9697 69.9188 28.96 67.0904 26.1316 75.0807 18.1413Z" stroke="#FFFFFF" fill="#FFFFFF"/><path d="M28.8592 26.0812 26.0308 28.9096 18.0405 20.9193 20.8689 18.0909Z" stroke="#FFFFFF" fill="#FFFFFF"/><path d="M72 42 82 42 82 46 72 46Z" stroke="#FFFFFF" fill="#FFFFFF"/><path d="M14 42 24 42 24 46 14 46Z" stroke="#FFFFFF" fill="#FFFFFF"/><path d="M32 70 35.4 36 60.5 36 64 70 32 70ZM76 70 70 70 66.4 33.6C66.2 31.6 64.5 30 62.4 30L33.6 30C31.5 30 29.8 31.6 29.6 33.6L26 70 20 70 20 76 14 76 14 82 82 82 82 76 76 76 76 70Z" stroke="#FFFFFF" fill="#FFFFFF"/><path d="M52.8 40 55.3 66 59.4 66 56.8 40Z" stroke="#FFFFFF" fill="#FFFFFF"/></g></svg>